<svg width="30" height="30" viewBox="0 0 30 30" fill="none" xmlns="http://www.w3.org/2000/svg">
<path d="M15 2.5C21.9035 2.5 27.5 8.09644 27.5 15C27.5 21.9035 21.9035 27.5 15 27.5C12.9771 27.5 11.0223 27.0183 9.26608 26.11L4.4838 27.4441C3.65265 27.6762 2.79073 27.1906 2.55864 26.3595C2.48183 26.0845 2.48186 25.7936 2.55869 25.5189L3.89326 20.7402C2.98296 18.9825 2.5 17.0254 2.5 15C2.5 8.09644 8.09644 2.5 15 2.5ZM15 4.375C9.13198 4.375 4.375 9.13198 4.375 15C4.375 16.837 4.84096 18.6043 5.71629 20.1719L5.9046 20.509L4.5137 25.4893L9.49694 24.099L9.83386 24.2869C11.4001 25.1601 13.1652 25.625 15 25.625C20.868 25.625 25.625 20.868 25.625 15C25.625 9.13198 20.868 4.375 15 4.375ZM10.9375 16.25H16.5604C17.0781 16.25 17.4979 16.6698 17.4979 17.1875C17.4979 17.6621 17.1451 18.0544 16.6875 18.1165L16.5604 18.125H10.9375C10.4197 18.125 10 17.7052 10 17.1875C10 16.7129 10.3527 16.3206 10.8103 16.2585L10.9375 16.25H16.5604H10.9375ZM10.9375 11.875H19.0681C19.5859 11.875 20.0056 12.2947 20.0056 12.8125C20.0056 13.2871 19.6529 13.6794 19.1954 13.7415L19.0681 13.75H10.9375C10.4197 13.75 10 13.3302 10 12.8125C10 12.3379 10.3527 11.9456 10.8103 11.8836L10.9375 11.875H19.0681H10.9375Z" fill="#657372"/>
</svg>
